<svg width="178" height="188" viewBox="0 0 178 188" fill="none" xmlns="http://www.w3.org/2000/svg">
<g filter="url(#filter0_d_418_1385)">
<path d="M87.0769 72H90.9231V76H87.0769V72ZM100.538 88H104.385V84H100.538V88ZM87.0769 88H90.9231V84H87.0769V88ZM64.9615 62H113.038C113.569 62 114 61.552 114 61C114 60.448 113.569 60 113.038 60H64.9615C64.4308 60 64 60.448 64 61C64 61.552 64.4308 62 64.9615 62ZM73.6154 76H77.4615V72H73.6154V76ZM73.6154 88H77.4615V84H73.6154V88ZM100.538 76H104.385V72H100.538V76ZM73.6154 110H77.4615V106H73.6154V110ZM87.0769 108.884V120H90.9231V108.884L89 108.218L87.0769 108.884ZM112.077 98V114C112.077 117.314 109.494 120 106.308 120H92.8462V107.442L89 106.108L85.1538 107.442V120H71.6923C68.5058 120 65.9231 117.314 65.9231 114V98H112.077ZM79.3846 106C79.3846 104.896 78.5231 104 77.4615 104H73.6154C72.5538 104 71.6923 104.896 71.6923 106V110C71.6923 111.104 72.5538 112 73.6154 112H77.4615C78.5231 112 79.3846 111.104 79.3846 110V106ZM106.308 106C106.308 104.896 105.446 104 104.385 104H100.538C99.4769 104 98.6154 104.896 98.6154 106V110C98.6154 111.104 99.4769 112 100.538 112H104.385C105.446 112 106.308 111.104 106.308 110V106ZM112.077 64V94H113.038C113.569 94 114 94.448 114 95C114 95.552 113.569 96 113.038 96H64.9615C64.4308 96 64 95.552 64 95C64 94.448 64.4308 94 64.9615 94H65.9231V64H112.077ZM79.3846 84C79.3846 82.896 78.5231 82 77.4615 82H73.6154C72.5538 82 71.6923 82.896 71.6923 84V88C71.6923 89.104 72.5538 90 73.6154 90H77.4615C78.5231 90 79.3846 89.104 79.3846 88V84ZM79.3846 72C79.3846 70.896 78.5231 70 77.4615 70H73.6154C72.5538 70 71.6923 70.896 71.6923 72V76C71.6923 77.104 72.5538 78 73.6154 78H77.4615C78.5231 78 79.3846 77.104 79.3846 76V72ZM92.8462 84C92.8462 82.896 91.9846 82 90.9231 82H87.0769C86.0154 82 85.1538 82.896 85.1538 84V88C85.1538 89.104 86.0154 90 87.0769 90H90.9231C91.9846 90 92.8462 89.104 92.8462 88V84ZM92.8462 72C92.8462 70.896 91.9846 70 90.9231 70H87.0769C86.0154 70 85.1538 70.896 85.1538 72V76C85.1538 77.104 86.0154 78 87.0769 78H90.9231C91.9846 78 92.8462 77.104 92.8462 76V72ZM106.308 84C106.308 82.896 105.446 82 104.385 82H100.538C99.4769 82 98.6154 82.896 98.6154 84V88C98.6154 89.104 99.4769 90 100.538 90H104.385C105.446 90 106.308 89.104 106.308 88V84ZM106.308 72C106.308 70.896 105.446 70 104.385 70H100.538C99.4769 70 98.6154 70.896 98.6154 72V76C98.6154 77.104 99.4769 78 100.538 78H104.385C105.446 78 106.308 77.104 106.308 76V72ZM100.538 110H104.385V106H100.538V110Z" fill="white"/>
</g>
<defs>
<filter id="filter0_d_418_1385" x="0" y="0" width="178" height="188" filterUnits="userSpaceOnUse" color-interpolation-filters="sRGB">
<feFlood flood-opacity="0" result="BackgroundImageFix"/>
<feColorMatrix in="SourceAlpha" type="matrix" values="0 0 0 0 0 0 0 0 0 0 0 0 0 0 0 0 0 0 127 0" result="hardAlpha"/>
<feOffset dy="4"/>
<feGaussianBlur stdDeviation="32"/>
<feComposite in2="hardAlpha" operator="out"/>
<feColorMatrix type="matrix" values="0 0 0 0 0 0 0 0 0 0 0 0 0 0 0 0 0 0 0.25 0"/>
<feBlend mode="normal" in2="BackgroundImageFix" result="effect1_dropShadow_418_1385"/>
<feBlend mode="normal" in="SourceGraphic" in2="effect1_dropShadow_418_1385" result="shape"/>
</filter>
</defs>
</svg>
