<svg width="147" height="150" viewBox="0 0 147 150" fill="none" xmlns="http://www.w3.org/2000/svg">
<g filter="url(#filter0_d_418_1383)">
<path d="M97.5961 51.9307L87.3615 62.7234L87.3883 62.8179L95.1606 92.9866C95.2936 93.6458 95.2774 94.3287 95.1133 94.98C94.9491 95.6314 94.6417 96.2327 94.2159 96.7353L91.6505 99.4405C91.4846 99.6448 91.2726 99.8017 91.034 99.8968C90.7953 99.9918 90.5379 100.022 90.2853 99.9842C90.0328 99.9466 89.7933 99.8425 89.589 99.6814C89.3847 99.5204 89.2222 99.3076 89.1165 99.0628L78.6043 78.9976L75.2689 75.4755L66.449 84.7764C65.4382 85.7276 64.3084 86.5282 63.0912 87.1559L65.0611 93.9875C65.2106 94.6388 65.2076 95.3186 65.0524 95.9684C64.8972 96.6182 64.5944 97.2184 64.1702 97.7173L63.3867 98.5482C62.9867 98.9669 62.446 99.2018 61.8824 99.2018C61.3189 99.2018 60.7781 98.9669 60.3781 98.5482L55.722 93.6429L55.6414 93.5484L52.1134 89.8375L52.0239 89.7431L47.3767 84.8377C46.9797 84.4159 46.757 83.8457 46.757 83.2514C46.757 82.6571 46.9797 82.0869 47.3767 81.6651L48.1647 80.8341C48.6386 80.3884 49.2081 80.0709 49.8243 79.9088C50.4404 79.7468 51.0847 79.7452 51.7015 79.904L58.1799 81.9719C58.7756 80.6888 59.5348 79.4974 60.4363 78.431L69.2562 69.1302L65.9163 65.6176L46.8887 54.5321C46.6566 54.4206 46.4548 54.2492 46.3021 54.0338C46.1494 53.8184 46.0506 53.5658 46.0149 53.2995C45.9792 53.0332 46.0078 52.7617 46.0979 52.51C46.188 52.2584 46.3368 52.0348 46.5305 51.8599L49.0959 49.1546C49.5726 48.7059 50.1429 48.3819 50.7605 48.2088C51.3781 48.0358 52.0256 48.0185 52.6507 48.1584L81.2592 56.3545L81.3488 56.3828L91.5834 45.59C93.2399 43.8337 98.8407 40.7744 100.506 42.5212C102.163 44.2775 99.2571 50.1791 97.5961 51.9307Z" fill="white"/>
</g>
<defs>
<filter id="filter0_d_418_1383" x="0" y="0" width="147" height="150" filterUnits="userSpaceOnUse" color-interpolation-filters="sRGB">
<feFlood flood-opacity="0" result="BackgroundImageFix"/>
<feColorMatrix in="SourceAlpha" type="matrix" values="0 0 0 0 0 0 0 0 0 0 0 0 0 0 0 0 0 0 127 0" result="hardAlpha"/>
<feOffset dy="4"/>
<feGaussianBlur stdDeviation="23"/>
<feComposite in2="hardAlpha" operator="out"/>
<feColorMatrix type="matrix" values="0 0 0 0 0 0 0 0 0 0 0 0 0 0 0 0 0 0 0.25 0"/>
<feBlend mode="normal" in2="BackgroundImageFix" result="effect1_dropShadow_418_1383"/>
<feBlend mode="normal" in="SourceGraphic" in2="effect1_dropShadow_418_1383" result="shape"/>
</filter>
</defs>
</svg>
