<svg width="51" height="70" viewBox="0 0 51 70" fill="none" xmlns="http://www.w3.org/2000/svg">
<path fill-rule="evenodd" clip-rule="evenodd" d="M25.5416 19.7267C22.0994 19.7267 19.3095 22.6416 19.3095 26.2381C19.3095 29.8345 22.0994 32.7495 25.5416 32.7495C28.9838 32.7495 31.7737 29.8345 31.7737 26.2381C31.7737 22.6416 28.9838 19.7267 25.5416 19.7267ZM25.5416 37.0904C19.806 37.0904 15.1548 32.2329 15.1548 26.2381C15.1548 20.2432 19.806 15.3857 25.5416 15.3857C31.2772 15.3857 35.9284 20.2432 35.9284 26.2381C35.9284 32.2329 31.2772 37.0904 25.5416 37.0904ZM25.5416 0.192383C11.7749 0.192383 0.613281 11.8543 0.613281 26.2381C0.613281 37.1295 21.3973 69.6714 25.5416 69.6476C29.6216 69.6714 50.47 36.9819 50.47 26.2381C50.47 11.8543 39.3083 0.192383 25.5416 0.192383Z" fill="white"/>
</svg>
