<svg version="1.0" xmlns="http://www.w3.org/2000/svg" viewBox="0 0 444.31 437.85"><path d="M341.68 435.723c-.474-.744-23.329-44.656-50.79-97.584-27.46-52.928-50.355-96.666-50.876-97.197-.61-.62-15.142 13.226-40.61 38.687-37.204 37.196-39.66 39.866-39.645 43.128.008 1.912 1.538 15.977 3.398 31.255l3.383 27.779-16.077 16.147-16.078 16.148-18.657-35.516-18.656-35.515-35.112-18.332c-19.311-10.082-35.121-18.559-35.133-18.838-.012-.28 7.078-7.598 15.756-16.263l15.779-15.756 30.95 3.757 30.95 3.756 40.089-40.073c31.262-31.25 39.783-40.293 38.702-41.066-.762-.546-45.41-24.205-99.22-52.576L2 96.08l20.204-20.204 20.204-20.204L163.17 87.675l120.762 32.004 55.22-55.11c38.704-38.627 56.554-55.779 59.684-57.348 2.881-1.445 6.94-2.4 11.448-2.695 8.87-.58 15.472 2.013 21.343 8.383 5.456 5.919 7.224 10.384 7.2 18.181-.038 12.043.643 11.229-61.366 73.414l-55.894 56.053 24.143 93.255c13.28 51.29 27.037 104.476 30.574 118.19l6.43 24.935-20.086 20.069c-14.924 14.91-20.308 19.72-20.948 18.717z" fill="#0084b0" class="fill-000000"></path></svg>